<?xml version="1.0" encoding="UTF-8"?>
<svg width="800" height="400" version="1.1" viewBox="0 0 211.67 105.83" xmlns="http://www.w3.org/2000/svg" xmlns:cc="http://creativecommons.org/ns#" xmlns:dc="http://purl.org/dc/elements/1.1/" xmlns:rdf="http://www.w3.org/1999/02/22-rdf-syntax-ns#">
 <metadata>
  <rdf:RDF>
   <cc:Work rdf:about="">
    <dc:format>image/svg+xml</dc:format>
    <dc:type rdf:resource="http://purl.org/dc/dcmitype/StillImage"/>
    <dc:title/>
   </cc:Work>
  </rdf:RDF>
 </metadata>
 <g fill="#ee6a7c" stroke-width=".81012" aria-label="Melody Gigant HotSpring">
  <path d="m70.126 43.448q0.18987 7.2151 0.18987 7.2151 0 2.3101-0.66455 3.2278-0.22152 0.28481-0.47468 0.50632-0.12658 0.09493-0.6962 0.50632l-0.28481 0.06329q-0.79113-0.22152-0.88607-0.28481-0.12658-0.09494-0.22152-0.25316-0.28481-0.47468-0.41139-1.2975-0.12658-1.6139-0.12658-4.7468-0.15823-9.81-0.22152-11.076 0-0.18987-0.03165-0.60126-0.03164-0.37974-0.03164-0.56961 0-0.50632 0.06329-0.75948l2.6582-1.3924q0.09493 0.06329 0.22152 0.28481l0.03164 0.03165q1.7405 1.962 4.0506 8.0062 0.15823 0.37974 0.44303 1.1392 0.50632 1.3607 0.75948 1.9936 0.12658-0.53797 0.41139-1.7721 1.3607-5.8227 2.5949-8.0695 0.94936-1.6456 2.0253-2.2785l2.6898-1.3607q0.09494 0.88607 0.09494 1.8038 0 1.7405-0.06329 5.2215-0.09494 3.5126-0.09494 5.2531 0 2.3734 0.09494 4.6835 0 0.37974 0.28481 3.3227 0.09494 0.85442 0.09494 1.4873-0.03165 0.88607-0.28481 1.2975-0.15823 0.18987-0.47468 0.56961-0.28481 0.28481-0.37974 0.41139l-0.25316 0.12658q-0.06329 0-0.6329 0l-0.56961-0.03164q-0.60126-0.12658-1.0126-1.3291-0.03164-0.06329-0.03164-0.09493-0.22152-0.91771-0.37974-3.924-0.03164-0.25316-0.03164-0.41139-0.06329-2.5316-0.06329-3.8291 0-1.0759 0.03164-3.2278 0.03164-2.1202 0.03164-3.1962-1.2025 4.905-1.962 8.2278-0.3481 1.4557-1.7721 1.962-0.44303 0.12658-0.82278 0.12658-1.4873 0-2.3417-2.2785-0.12658-0.31645-0.3481-0.94936-0.12658-0.41139-0.18987-0.60126-0.37974-1.3291-1.0126-3.1329z"/>
  <path d="m88.864 52.784q0.88607 1.4873 2.4683 1.7088 0.18987 0 0.47468-0.06329 0.28481-0.25316 0.82278-0.82278 1.424-1.424 2.3734-1.7405 0.09493-0.03164 0.12658-0.03164 0.6329 0.22152 0.6962 0.28481 0.06329 0.12658 0.06329 0.22152-0.18987 1.1709-1.424 2.4367-0.03164 0.03164-0.12658 0.12658-0.15823 0.15823-0.22152 0.22152-0.44303 0.22152-1.2342 0.72784-1.7405 1.1076-3.0379 1.2658-0.09493 0-0.15823 0-4.367-0.53797-4.905-5.7278-0.06329-0.6329-0.06329-1.2975 0.03165-3.4177 2.8164-6.0442 0.44303-0.22152 1.2025-0.75948 1.5506-1.0759 2.6582-1.2025 0.15823-0.03165 0.31645-0.03165 1.6139 0 2.3734 1.5506 0.31645 0.72784 0.31645 1.519-0.25316 5.0632-5.5379 7.6581zm1.519-8.386q-2.2468 2.0886-2.2785 5.0316 0 1.1392 0.31645 2.3417 2.5949-1.8354 3.3227-3.8291 0.28481-0.79113 0.37974-1.6456 0-1.2975-0.94936-1.7721-0.28481-0.12658-0.60126-0.15823-0.03164 0-0.09493 0-0.06329 0.03164-0.09494 0.03164z"/>
  <path d="m103.23 32.91q0.60126 0.06329 0.60126 1.2342-1.7405 5.1265-2.1519 6.7404-0.75948 3.2278-0.79113 6.329 0.0949 2.2468 0.79113 2.9114 0.50633 0.50632 0.53797 1.0126 0 0.91771-1.0759 1.3291-0.50632 0.18987-1.0759 0.18987-2.405-0.15823-2.5949-3.7658-0.03164-0.31645-0.03164-0.6329 0.03164-5.2848 2.4367-11.804 0.22151-0.60126 0.50632-1.3291 0.37974-0.85442 1.424-1.6139 0.75949-0.60126 1.424-0.60126z"/>
  <path d="m109.85 44.809q-0.25316 0.22152-1.2658 1.3924-0.6329 0.75948-1.2342 1.0126-0.12658 0.44303-0.12658 1.0443 0 2.0886 1.3291 3.4177 0.82277 0.82278 1.8038 0.82278 0.41139 0 0.60126-0.06329 2.2152-1.7405 2.3734-4.3987 0-2.1835-1.519-3.0063-0.53797-0.28481-1.1709-0.31645-0.41139 0-0.79113 0.09494zm1.8987-2.5633h0.22152q2.3101 0.18987 3.2595 2.3734 0.44303 1.0126 0.44303 2.2152-0.15823 3.8924-3.0696 6.1708-1.7088 1.2975-3.8607 1.6139-2.5949-0.25316-3.8607-2.7531-0.69619-1.424-0.69619-3.1645 0-2.3417 1.7721-3.924 0.94935-0.82278 1.962-1.0443h0.18987q2.0886-1.3924 3.481-1.4873 0.0949 0 0.15822 0z"/>
  <path d="m130.77 34.683q0.60126 0.06329 0.6329 1.2342-0.2848 0.79113-0.82277 2.2152-1.1709 3.1962-1.4557 5.0632 0.34809 0.6962 0.37974 1.2342-0.0316 0.60126-0.37974 0.981l-0.18987 0.06329v1.2342q0 2.5316 0.56961 3.2278 0.0949 0.12658 0.18987 0.18987 0.53797 0.53797 0.56961 1.0126 0 0.91771-1.1392 1.3291-0.47468 0.18987-1.0443 0.18987-2.1202-0.18987-2.5316-3.0063-0.31645 0.44303-0.50633 0.6329-0.37974 0.22152-1.0443 0.6962-1.5823 1.1392-2.6898 1.2342-0.18987 0.03164-0.37974 0.03164-2.2152 0-3.0379-2.1202-0.3481-0.88607-0.3481-1.9304 0.0949-4.9367 4.905-6.424 1.5506-0.47468 3.4177-0.53797 0.3481 0 0.50632 0.03165 0.18987-0.6962 1.5506-4.3354 0.37974-0.85442 1.424-1.6456 0.75949-0.60126 1.424-0.60126zm-6.8987 9.3353h-0.18987q-0.6329 0-1.2658 0.15823-1.3291 1.2658-1.3607 3.1645v0.3481q0.0633 1.5823 1.1076 1.962 0.28481 0.09494 0.53797 0.09494h0.0949q0.25317 0 0.3481-0.03164 1.6456-1.5506 2.4367-4.3354 0-0.06329 0.0316-0.12658 0-0.09494 0-0.12658v-0.03164q0-0.09494 0.0316-0.28481 0-0.18987 0-0.25316v-0.031659q-0.85442-0.50632-1.7721-0.50632z"/>
  <path d="m137.07 52.372q2.0253-1.962 2.7848-5.5696 0.18987-3.4177 1.1709-4.3987 0.2848-0.25316 0.60125-0.41139 1.962 0.03164 1.962 4.8101-0.0316 6.329-0.25316 8.3543-0.53797 4.3354-2.3418 6.424-0.28481 0.18987-0.82277 0.56961-1.9304 1.3607-3.038 1.5506-0.34809 0.06329-0.66455 0.06329-1.8987-0.09494-2.7531-2.1202-0.3481-0.85442-0.37974-1.8354 0.0633-1.2342 0.31645-1.5823 0.0317-0.03164 0.0633-0.06329l2.3101-0.75948q0.25316 0.31645 0.75949 1.7088 0.44303 1.2342 1.1709 1.519 1.5506-2.0569 1.7405-7.5632 0.0316-0.56961 0.0633-3.1329v-0.03165q-2.7848 4.4303-4.462 4.8101-2.6266-0.37974-2.8797-3.7974-0.0316-0.3481-0.0316-0.6962 0.0633-6.8037 3.1645-8.291 0.75949-0.37974 1.7088-0.37974 0.0633 0 0.15822 0 0.37974 0.06329 0.37974 0.18987v0.06329q-0.22151 0.72784-0.75948 2.0886-1.2658 3.1329-1.3608 5.1265-0.0316 0.28481-0.0316 0.53797 0.0316 2.7848 1.2658 2.8164z"/>
  <path d="m15.109 78.986h-0.03165l-0.31645 0.03165q-0.06329 0-0.25316 0.03164-0.94936-0.03164-1.0126-0.44303 0-0.03164 0.25316-0.41139 2.5949-1.9936 3.8924-2.6266 1.0443-0.50632 2.0886-0.75948 1.6139 0.44303 1.8038 3.1645 0.06329 0.60126 0.06329 1.8671 0 1.0126 0.03165 1.4873v0.44303q-0.03165 2.3101-1.519 4.2088-0.28481 0.18987-0.88607 0.6329-2.1202 1.519-3.3227 1.7405-0.28481 0.03165-0.53797 0.03165-6.0759-0.3481-6.6139-9.367-0.031645-0.6329-0.031645-1.2658 0-4.4936 2.1835-7.848 0.79113-1.1709 1.7088-1.9304 0.28481-0.12658 1.9936-1.2342 1.5506-0.981 2.9114-0.981 1.5506 0 2.3417 1.8987 0.41139 0.94936 0.41139 1.9936-0.03165 1.7721-1.0126 2.6582l-2.2468 0.41139q-0.25316-0.37974-0.47468-2.0253-0.22152-1.5823-1.0443-1.8987-2.3417 2.1519-2.943 6.0759-0.15823 1.0126-0.15823 2.0253 0.25316 8.1645 4.8101 8.7341 0.18987 0 0.53797-0.06329 2.0886-1.8987 2.0886-4.8101-0.03165-2.4367-1.519-3.0063-2.1202 1.2342-3.1962 1.2342z"/>
  <path d="m27.201 68.416q0.85442 0.60126 0.85442 2.1835 0 0.18987-0.03165 0.60126 0 0.31645 0 0.44303 0 0.981-1.2975 1.2025-0.22152 0.03164-0.41139 0.03164-1.5506-0.22152-2.1519-1.8987-0.25316-0.6329-0.25316-1.3291 0-0.53797 0.06329-0.79113 0.22152-0.91771 1.519-0.94936 0.94936 0.03164 1.7088 0.50632zm-3.2911 8.5442q0-0.12658-0.06329-0.3481 0.31645-0.18987 0.91771-0.66455 1.2025-0.91771 1.9304-1.1392 0.85442 0.6329 0.85442 2.1835 0 0.53797-0.12658 1.6772-0.12658 1.2025-0.12658 1.7721 0 0.50632 0.6329 2.3417 0.31645 0.91771 0.31645 1.424 0 1.2342-1.7088 1.3924-0.15823 0.03164-0.28481 0.03164-2.5-0.37974-2.6898-4.6835 0.06329-2.2152 0.37974-3.6076z"/>
  <path d="m36.161 84.46h0.31645q0.47468-0.06329 0.88607-0.18987 1.4873-1.0759 1.519-2.5633-0.12658-3.1329-2.1519-4.1455-0.31645-0.12658-0.6329-0.22152-0.56961 0.06329-1.1392 0.44303-0.94936 1.6456-1.0126 3.7658 0 1.9936 1.2342 2.6582 0.47468 0.25316 0.981 0.25316zm-3.6708 4.8101q0.47468 0 0.56961 0.44303 0.03165 0.06329 0.03165 0.09493-0.18987 0.37974-0.44303 0.82278-0.15823 0.12658-0.72784 0.50632-0.22152 0.50632-0.28481 1.1392 0.3481 1.6139 3.3544 1.7405 2.0253-0.06329 4.2721-1.1076 1.3924-0.91771 2.0253-2.0569-0.15823-0.85442-2.1835-0.91771-0.09494 0-0.25316 0-0.18987 0-0.28481 0-0.18987 0-0.6329 0-0.47468 0.03164-0.66455 0.03164h-0.41139q-3.8291 0-4.905-1.3924-0.53797-0.72784-0.56961-1.7405 0.03164-0.53797 0.22152-1.2025-1.1709-1.2342-1.1709-3.1329 0.18987-5.0632 4.0189-7.5949 1.2025-0.79113 2.6266-1.2342 0.22152 0.03164 0.3481 0.12658 2.1202-2.2785 5.5063-2.943 1.6772 0.03164 1.8354 1.7088 0.03164 0.18987 0.03164 0.3481 0 0.3481-0.25316 0.37974-0.09494 0-0.28481 0.03164-1.1709 0.09493-2.4367 0.47468-0.22152-0.22152-0.22152-0.44303 0-0.15823 0.03165-0.18987-0.18987-0.12658-0.47468-0.12658-0.3481 0-1.0443 0.28481-0.53797 0.47468-1.1392 1.1709 2.0569 0.6962 2.5 3.1645 0.09493 0.53797 0.09493 1.1076-0.09493 5.1898-4.3037 6.9936-1.1392 0.47468-2.5 0.66455 0.06329 1.7405 2.7531 1.9936 0.60126 0.06329 1.8354 0.06329 0.66455 0.03164 0.981 0.03164 0.18987 0 0.56961-0.03164 0.41139 0 0.60126 0h0.18987q2.8164 0.06329 2.8481 1.8671 0 1.3924-1.6139 2.5316-0.12658 0.09494-0.22152 0.15823-3.1329 2.2468-4.9683 3.0063-2.2152 0.88607-4.7151 0.91771-2.9746 0-4.1455-1.8038-0.50632-0.82278-0.50632-1.8671 0-1.8038 1.2658-2.6582 0.3481-0.25316 1.2025-0.66455 0.79113-0.41139 1.2342-0.66455 0.12658-0.03164 0.3481-0.03164z"/>
  <path d="m52.778 82.245q-0.06329 0.09493-0.18987 0.22152-0.12658 0.15823-0.18987 0.22152-0.37974 0.22152-1.0443 0.69619-1.5823 1.1392-2.6898 1.2342-0.18987 0.03164-0.37974 0.03164-2.2152 0-3.0379-2.1202-0.3481-0.88607-0.3481-1.9304 0.09493-4.9367 4.905-6.424 1.5506-0.47468 3.4177-0.53797 1.8987 0 3.0063 1.5506 0.53797 0.75948 0.6329 1.6456-0.03164 0.47468-0.25316 0.82278-0.18987 2.7848-0.18987 2.7848 0 0.50632 0.6329 2.3417 0.31645 0.91771 0.31645 1.424 0 1.2658-1.962 1.424-0.03164 0-0.06329 0-2.0886-0.31645-2.5633-3.386zm-1.5506-5.8227h-0.18987q-0.6329 0-1.2658 0.15823-1.3291 1.2658-1.3607 3.1645v0.3481q0.06329 1.5823 1.1076 1.962 0.28481 0.09494 0.53797 0.09494h0.09494q0.25316 0 0.3481-0.03164 1.9304-1.8038 2.4683-4.4936v-0.12658q0-0.09493 0.03165-0.28481 0-0.18987 0-0.25316v-0.03165q-0.85443-0.50633-1.7721-0.50633z"/>
  <path d="m62.814 79.967q3.2278-5.5696 5.2215-6.0126 2.6582 0.41139 2.8797 3.8924 0.03164 0.28481 0.03164 0.56961-0.06329 6.7721-3.1012 8.291-0.82278 0.41139-1.7721 0.41139-0.06329 0-0.15823 0-0.37974-0.06329-0.37974-0.18987v-0.06329q0.22152-0.72784 0.75948-2.0886 1.2658-3.1329 1.3607-5.1265 0.03164-0.28481 0.03164-0.53797-0.03164-2.7848-1.2658-2.8164h-0.15823q-2.5949 2.5-3.1329 7.5632-0.09494 1.0126-1.2975 1.6772-0.50632 0.25316-0.94936 0.28481-0.25316-0.09494-0.53797-0.981l-0.03165 0.03165h-0.03164l0.03164-0.06329q-0.75948-2.5-0.82278-6.0126 0-0.18987 0-0.31645 0-2.1835 0.53797-2.6582l2.405-1.0443q0.37974 1.3924 0.37974 4.4303z"/>
  <path d="m80.381 71.391q0.66455 0.03164 0.6962 0.3481v0.03164q0 0.09494-0.03165 0.22152-0.03164 0.09493-0.06329 0.18987 0 0.06329-0.06329 0.18987l-0.06329 0.12658-0.22152 0.25316q-1.0443 1.0126-3.0379 1.5506-0.09494 1.7721-0.09494 3.5126 0 0.37974 0 1.2025 0 3.5126 0.56961 4.6835 0.56961 1.0443 1.6456 1.2342 0.09494 0.03164 0.12658 0.12658 0 1.1392-1.5506 1.8038-0.53797 0.22152-0.91771 0.25316-2.7215-0.60126-3.2278-4.6202-0.15823-1.2975-0.18987-3.4493 0.06329-2.6582 0.12658-3.9873-0.18987 0.06329-0.53797 0.12658-0.37974 0.12658-0.53797 0.15823-0.22152 0-0.41139-0.09494l1.5823-2.0253q0.03165-0.53797 0.09494-1.5823 0.03165-1.0759 0.06329-1.6139 0.09494-0.79113 0.25316-1.0443l2.6266-1.3607q0.53797 0.56961 0.53797 2.1202v0.22152q0 0.66455-0.06329 1.8987 0.31645-0.06329 2.6898-0.47468z"/>
  <path d="m93.047 76.866q0 0.88607 0.06329 2.6582 0.09494 2.3734 0.09494 3.5443 0 2.3101-0.66455 3.2278-0.22152 0.28481-0.47468 0.50632-0.12658 0.09493-0.6962 0.50632l-0.25316 0.06329q-0.85442-0.25316-1.0126-0.41139-0.09494-0.06329-0.12658-0.12658-0.25316-0.41139-0.37974-1.2975-0.12658-1.6139-0.18987-8.1645 0-0.18987 0-0.31645-0.44303 0.03164-0.85442 0l0.82278-1.2342q-0.06329-3.9873-0.15823-6.1075 0-0.18987 0-0.60126-0.03165-0.37974-0.03165-0.56961 0-0.50632 0.06329-0.75948l2.6582-1.3924q0.44303 0.37974 0.6962 1.7721 0.03164 0.09493 0.03164 0.15823 0.31645 2.4683 0.37974 5.7594 2.5949-0.18987 3.924-0.18987v-2.4367q0-0.75948-0.03165-2.2468-0.03164-1.4557-0.03164-2.1835 0-0.88607 0.03164-1.2975l3.6708-1.3607q0.0633 0.60126 0.0633 1.8038 0 1.7405-0.0633 5.2215-0.0633 3.5126-0.0633 5.2531 0 2.3734 0.0949 4.6835 0 0.44303 0.31646 3.2595 0.0949 0.91771 0.0949 1.5506-0.0316 0.79113-0.3481 1.2975-0.15822 0.22152-0.50632 0.6329-0.18987 0.25316-0.28481 0.3481l-0.28481 0.12658q-0.06329 0-0.6329 0l-0.53797-0.03165q-0.60126-0.12658-1.0126-1.3291-0.03165-0.06329-0.03165-0.09493-0.25316-0.94936-0.44303-4.1139 0-0.12658 0-0.22152-0.06329-2.5316-0.06329-3.8291 0-0.44303 0-1.2975 0.03164-0.85442 0.03164-1.2975-1.5506 0.37974-3.8607 0.53797z"/>
  <path d="m108.72 77.214q-0.25317 0.22152-1.2658 1.3924-0.63291 0.75948-1.2342 1.0126-0.12658 0.44303-0.12658 1.0443 0 2.0886 1.3291 3.4177 0.82278 0.82278 1.8038 0.82278 0.41139 0 0.60126-0.06329 2.2152-1.7405 2.3734-4.3987 0-2.1835-1.519-3.0063-0.53797-0.28481-1.1709-0.31645-0.41139 0-0.79113 0.09493zm1.8987-2.5633h0.22152q2.3101 0.18987 3.2594 2.3734 0.44304 1.0126 0.44304 2.2152-0.15823 3.8924-3.0696 6.1708-1.7088 1.2975-3.8607 1.6139-2.5949-0.25316-3.8607-2.7531-0.6962-1.424-0.6962-3.1645 0-2.3417 1.7721-3.924 0.94936-0.82278 1.962-1.0443h0.18987q2.0886-1.3924 3.481-1.4873 0.0949 0 0.15823 0z"/>
  <path d="m123.88 71.391q0.66455 0.03164 0.69619 0.3481v0.03164q0 0.09494-0.0316 0.22152-0.0316 0.09493-0.0633 0.18987 0 0.06329-0.0633 0.18987l-0.0633 0.12658-0.22152 0.25316q-1.0443 1.0126-3.0379 1.5506-0.0949 1.7721-0.0949 3.5126 0 0.37974 0 1.2025 0 3.5126 0.56962 4.6835 0.56961 1.0443 1.6456 1.2342 0.0949 0.03164 0.12658 0.12658 0 1.1392-1.5506 1.8038-0.53796 0.22152-0.91771 0.25316-2.7215-0.60126-3.2278-4.6202-0.15822-1.2975-0.18987-3.4493 0.0633-2.6582 0.12658-3.9873-0.18987 0.06329-0.53797 0.12658-0.37974 0.12658-0.53797 0.15823-0.22151 0-0.41138-0.09494l1.5823-2.0253q0.0316-0.53797 0.0949-1.5823 0.0316-1.0759 0.0633-1.6139 0.0949-0.79113 0.25316-1.0443l2.6266-1.3607q0.53797 0.56961 0.53797 2.1202v0.22152q0 0.66455-0.0633 1.8987 0.31645-0.06329 2.6898-0.47468z"/>
  <path d="m128.91 74.714q0 3.1012 2.2152 4.5569 0.37975 0.22152 2.5316 1.2658 2.1202 0.981 2.8164 2.405 0.50632 1.0759 0.53796 2.5316-0.0949 1.8038-1.4557 3.1012l-0.0316 0.03164-0.0633 0.03164q-0.981 0.79113-1.962 1.2658-0.15822 0.06329-0.50632 0.25316-0.72784 0.3481-1.2025 0.56961-0.94935 0.12658-1.3924 0.12658-3.386 0-4.905-2.1519-0.82278-1.2025-0.82278-2.8164 0-3.6708 1.1076-4.2721 0.28481-0.12658 0.60126-0.15823 0.981 0 1.1076 1.2342 0.0316 0.18987 0.0316 0.37974 0 0.25316-0.18987 0.94936-0.25316 1.0126-0.25316 1.5506 0 1.424 1.7088 2.2152 0.94935 0.44303 1.962 0.44303h0.22152q0.69619 0 1.6772-0.25316 0.63291-0.75948 0.63291-1.6456v-0.06329q0-0.47468-0.22152-1.1076-0.82277-1.2658-3.0696-2.9114-2.2152-1.6139-3.0063-2.6582-1.3291-1.7721-1.3291-4.3354 0-2.9114 1.4873-4.7784 0.15822-0.18987 0.2848-0.31645 2.0253-2.0253 3.3228-2.6898 1.2658-0.6329 2.5949-0.6962 1.8038 0 2.5 2.5 0.31645 1.1076 0.31645 2.405 0 3.1962-1.4557 5.3797-0.25316 0.37974-0.50632 0.6329l-3.1329 0.28481q1.7088-1.5823 2.3734-4.0506 0.25317-0.94936 0.25317-1.8038-0.0633-2.6266-1.3608-3.1645-0.28481-0.12658-0.60126-0.12658h-0.12658q-0.37974 0-1.0443 0.18987-1.4557 1.2342-1.6139 4.3354-0.0316 0.60126-0.0316 1.3607z"/>
  <path d="m144.07 74.366q0.60126 0.06329 0.6329 1.2342-0.12658 0.37974-0.41139 1.1392-0.25316 0.75948-0.37974 1.1392 1.2975-2.3417 3.0063-2.9746 0.85442-0.31645 1.8671-0.31645 2.2152 0 3.0379 2.1519 0.31645 0.88607 0.31645 1.8987-0.0949 4.9367-4.8417 6.424-1.5506 0.50632-3.4493 0.56961-0.981-0.03164-1.8354-0.50632-0.25316 1.8354-0.25316 3.5759 0.0949 2.2785 0.75948 2.9114 0.53797 0.53797 0.56962 1.0126 0 0.91771-1.1392 1.3291-0.47468 0.18987-1.0443 0.18987-2.405-0.15823-2.5949-3.7658-0.0317-0.31645-0.0317-0.6329 0.0317-5.2848 2.4367-11.804 0.22151-0.60126 0.50632-1.3291 0.37974-0.85442 1.424-1.6456 0.75949-0.60126 1.424-0.60126zm1.7721 8.4809h0.18987q0.53797 0 1.2658-0.18987 1.3291-1.2658 1.3607-3.1645v-0.31645q-0.0633-1.6139-1.1076-1.9936-0.28481-0.09494-0.53797-0.09494h-0.0949q-0.25316 0-0.3481 0.03165-1.7721 1.6772-2.5 4.462v0.18987q0 0.09494-0.0317 0.28481 0 0.15823 0 0.22152v0.03164q0.91771 0.53797 1.8038 0.53797z"/>
  <path d="m157.75 79.967q3.2278-5.5696 5.2215-6.0126 1.962 0.28481 2.6582 2.4367 0.25316 0.79113 0.25316 1.6456v0.37974q-0.12658 1.0126-1.5823 1.0443-0.94936 0-1.6772-0.3481-0.53797-0.25316-0.6329-1.5823-0.0949-1.0759-0.44303-1.2025-0.0949-0.03164-0.18988-0.03164h-0.15822q-2.5949 2.5-3.1329 7.5632-0.0949 1.0126-1.2974 1.6772-0.50632 0.25316-0.94936 0.28481-0.25316-0.09494-0.53797-0.981-0.0316 0-0.0316 0.03165h-0.0317l0.0317-0.06329q-0.75949-2.5-0.82278-6.0126 0-0.18987 0-0.31645 0-2.1835 0.53797-2.6582l2.405-1.0443q0.37974 1.3924 0.37974 4.4303z"/>
  <path d="m171.55 68.416q0.85442 0.60126 0.85442 2.1835 0 0.18987-0.0316 0.60126 0 0.31645 0 0.44303 0 0.981-1.2974 1.2025-0.22152 0.03164-0.41139 0.03164-1.5506-0.22152-2.1519-1.8987-0.25316-0.6329-0.25316-1.3291 0-0.53797 0.0633-0.79113 0.22152-0.91771 1.519-0.94936 0.94936 0.03164 1.7088 0.50632zm-3.2911 8.5442q0-0.12658-0.0633-0.3481 0.31645-0.18987 0.91771-0.66455 1.2025-0.91771 1.9304-1.1392 0.85442 0.6329 0.85442 2.1835 0 0.53797-0.12658 1.6772-0.12658 1.2025-0.12658 1.7721 0 0.50632 0.6329 2.3417 0.31646 0.91771 0.31646 1.424 0 1.2342-1.7088 1.3924-0.15822 0.03164-0.2848 0.03164-2.5-0.37974-2.6898-4.6835 0.0633-2.2152 0.37975-3.6076z"/>
  <path d="m178.04 79.967q3.2278-5.5696 5.2215-6.0126 2.6582 0.41139 2.8797 3.8924 0.0316 0.28481 0.0316 0.56961-0.0633 6.7721-3.1012 8.291-0.82278 0.41139-1.7721 0.41139-0.0633 0-0.15822 0-0.37975-0.06329-0.37975-0.18987v-0.06329q0.22152-0.72784 0.75949-2.0886 1.2658-3.1329 1.3607-5.1265 0.0317-0.28481 0.0317-0.53797-0.0317-2.7848-1.2658-2.8164h-0.15823q-2.5949 2.5-3.1329 7.5632-0.0949 1.0126-1.2975 1.6772-0.50632 0.25316-0.94935 0.28481-0.25316-0.09494-0.53797-0.981l-0.0317 0.03165h-0.0316l0.0316-0.06329q-0.75948-2.5-0.82277-6.0126 0-0.18987 0-0.31645 0-2.1835 0.53797-2.6582l2.405-1.0443q0.37975 1.3924 0.37975 4.4303z"/>
  <path d="m194.31 84.46h0.31645q0.47468-0.06329 0.88606-0.18987 1.4873-1.0759 1.519-2.5633-0.12659-3.1329-2.1519-4.1455-0.31645-0.12658-0.6329-0.22152-0.56962 0.06329-1.1392 0.44303-0.94936 1.6456-1.0126 3.7658 0 1.9936 1.2342 2.6582 0.47468 0.25316 0.98101 0.25316zm-3.6708 4.8101q0.47468 0 0.56962 0.44303 0.0316 0.06329 0.0316 0.09493-0.18987 0.37974-0.44303 0.82278-0.15823 0.12658-0.72784 0.50632-0.22152 0.50632-0.28481 1.1392 0.3481 1.6139 3.3544 1.7405 2.0253-0.06329 4.2721-1.1076 1.3924-0.91771 2.0253-2.0569-0.15822-0.85442-2.1835-0.91771-0.0949 0-0.25316 0-0.18987 0-0.28481 0-0.18987 0-0.6329 0-0.47468 0.03164-0.66455 0.03164h-0.41139q-3.8291 0-4.905-1.3924-0.53797-0.72784-0.56961-1.7405 0.0316-0.53797 0.22152-1.2025-1.1709-1.2342-1.1709-3.1329 0.18987-5.0632 4.0189-7.5949 1.2025-0.79113 2.6266-1.2342 0.22151 0.03164 0.3481 0.12658 2.1202-2.2785 5.5063-2.943 1.6772 0.03164 1.8354 1.7088 0.0316 0.18987 0.0316 0.3481 0 0.3481-0.25316 0.37974-0.0949 0-0.28481 0.03164-1.1709 0.09493-2.4367 0.47468-0.22152-0.22152-0.22152-0.44303 0-0.15823 0.0317-0.18987-0.18987-0.12658-0.47468-0.12658-0.3481 0-1.0443 0.28481-0.53797 0.47468-1.1392 1.1709 2.0569 0.6962 2.5 3.1645 0.0949 0.53797 0.0949 1.1076-0.0949 5.1898-4.3038 6.9936-1.1392 0.47468-2.5 0.66455 0.0633 1.7405 2.7531 1.9936 0.60126 0.06329 1.8354 0.06329 0.66455 0.03164 0.98101 0.03164 0.18987 0 0.56961-0.03164 0.41139 0 0.60126 0h0.18987q2.8164 0.06329 2.8481 1.8671 0 1.3924-1.6139 2.5316-0.12658 0.09494-0.22151 0.15823-3.1329 2.2468-4.9683 3.0063-2.2152 0.88607-4.7151 0.91771-2.9746 0-4.1455-1.8038-0.50633-0.82278-0.50633-1.8671 0-1.8038 1.2658-2.6582 0.3481-0.25316 1.2025-0.66455 0.79113-0.41139 1.2342-0.66455 0.12658-0.03164 0.3481-0.03164z"/>
 </g>
 <a>
  <path d="m138.76 24.087c3.4911 1.0192 6.5189 3.565 10.284 3.5996 0 0-0.54293 1.2115-0.56241 1.8584-0.0503 1.6686 0.72479 2.2197 0.72479 2.2197-2.7703-1.2177-6.9787-2.1348-9.3921-4.0738-3.2478-1.9923-1.6936-1.9818-4.4085-1.153-2.6864 0.78522-5.3709 1.8575-8.1969 2.0085-2.1444 0.26251-3.8361-1.3953-5.1304-2.6596-0.11244 3.4369 2.0524 4.9866 3.6036 5.715 3.8561 2.4036 6.7233 1.8529 11.026 3.0352 5.4048 1.2979 10.836 2.5256 16.369 3.1358 3.304 0.33586 6.4366 1.4569 9.6511 2.1985 2.0797 0.55808 4.8641-0.09778 5.3422-2.5145-1.8877 1.4175-4.135 0.96629-5.3247-1.085-1.8308-2.2275-3.4303-4.6473-4.899-7.1175-1.8256-2.4631-0.4352 0.18552-0.46358 0.84145-0.90522 0.08229-2.2914 0.0797-3.1967 0.162 0.53568-1.2849-1.6869-2.9584-0.65195-0.93564 0.61104 1.6926-1.1587 4.0114-2.8819 2.5803-1.9163-0.86842-2.0407-4.038 0.44849-4.13 1.1004-0.06641 2.2806 0.77368 1.1799-0.78816-1.0247-1.1355 2.0926-3.7547 3.7819-2.6372 2.0694 1.2979-0.15379 3.29-1.6193 3.8539 1.6786 0.91574 4.0208-2.2036 2.9997-4.1138-1.3332-1.4629-1.5377-3.4271-1.0187-5.306-0.046-2.6676 2.7128 0.3136 4.3556-0.52897 2.2857-0.18694 4.6-1.6394 5.2333-3.9352l-3.5996 1.2427c-1.7143-1.1526-3.5409-2.1965-5.1976-3.3981-0.75287-1.3384-1.5057-2.6769-2.2586-4.0153-3.9575 1.309-7.4501 3.78-10.581 6.4814-2.1385 1.8595-2.4794 4.9482-4.5081 6.909-0.58947 1.6733-1.1245 1.8255-1.109 2.5506z" fill="#ed6b7d"/>
 </a>
 <g stroke-width=".25711"></g>
 <g stroke-width=".25711"></g>
</svg>
