<svg xmlns="http://www.w3.org/2000/svg" viewBox="0 0 211.67 105.83" height="400" width="800"><path aria-label="Melody Gigant HotSpring" stroke-width=".81" fill="#ee6a7c" d="M70.126 43.448l.19 7.215q0 2.31-.665 3.228-.221.285-.474.506-.127.095-.697.507l-.284.063q-.792-.222-.886-.285-.127-.095-.222-.253-.285-.475-.411-1.298-.127-1.614-.127-4.746-.158-9.81-.221-11.076 0-.19-.032-.602-.032-.38-.032-.57 0-.506.064-.759l2.658-1.392q.095.063.221.285l.032.031q1.74 1.962 4.05 8.006.159.38.444 1.14.506 1.36.759 1.993.127-.538.411-1.772 1.361-5.823 2.595-8.07.95-1.645 2.026-2.278l2.69-1.36q.094.886.094 1.803 0 1.74-.063 5.222-.095 3.512-.095 5.253 0 2.373.095 4.683 0 .38.285 3.323.095.854.095 1.487-.032.886-.285 1.298l-.475.57q-.284.284-.38.41l-.253.127h-.632l-.57-.031q-.601-.127-1.013-1.33-.031-.063-.031-.094-.222-.918-.38-3.924-.032-.253-.032-.412-.063-2.531-.063-3.829 0-1.076.032-3.228.031-2.12.031-3.196-1.202 4.905-1.962 8.228-.348 1.456-1.772 1.962-.443.127-.823.127-1.487 0-2.341-2.279-.127-.316-.348-.95-.127-.41-.19-.6-.38-1.33-1.013-3.133zm18.738 9.336q.886 1.487 2.468 1.709.19 0 .475-.063.285-.254.823-.823 1.424-1.424 2.373-1.74.095-.032.127-.032.633.221.696.284.063.127.063.222-.19 1.17-1.424 2.437l-.126.126-.222.222q-.443.221-1.234.728-1.74 1.107-3.038 1.265h-.158q-4.367-.538-4.905-5.727-.063-.633-.063-1.298.031-3.418 2.816-6.044.443-.222 1.202-.76 1.551-1.076 2.659-1.202.158-.032.316-.032 1.614 0 2.373 1.55.317.729.317 1.52-.253 5.063-5.538 7.658zm1.519-8.386q-2.247 2.089-2.278 5.032 0 1.139.316 2.341 2.595-1.835 3.323-3.829.284-.79.38-1.645 0-1.298-.95-1.772-.285-.127-.601-.159h-.095q-.063.032-.095.032zM103.23 32.91q.601.063.601 1.234-1.74 5.127-2.152 6.74-.76 3.228-.79 6.33.094 2.246.79 2.911.507.506.538 1.013 0 .917-1.076 1.329-.506.19-1.075.19-2.405-.159-2.595-3.766-.032-.317-.032-.633.032-5.285 2.437-11.804.221-.601.506-1.33.38-.854 1.424-1.613.76-.601 1.424-.601zm6.62 11.899q-.253.222-1.266 1.392-.633.76-1.234 1.013-.127.443-.127 1.044 0 2.089 1.33 3.418.822.823 1.803.823.412 0 .602-.064 2.215-1.74 2.373-4.398 0-2.184-1.519-3.007-.538-.284-1.17-.316-.412 0-.792.095zm1.899-2.563h.221q2.31.19 3.26 2.373.443 1.013.443 2.215-.158 3.893-3.07 6.171-1.709 1.298-3.86 1.614-2.595-.253-3.861-2.753-.696-1.424-.696-3.165 0-2.341 1.772-3.924.949-.822 1.962-1.044h.19q2.088-1.392 3.48-1.487h.159zm19.021-7.563q.601.063.633 1.234-.285.791-.823 2.215-1.17 3.197-1.456 5.064.349.696.38 1.234-.031.601-.38.98l-.19.064v1.234q0 2.532.57 3.228.095.127.19.19.538.538.57 1.013 0 .917-1.14 1.329-.474.19-1.044.19-2.12-.19-2.531-3.007-.317.443-.507.633-.38.222-1.044.696-1.582 1.14-2.69 1.235-.19.031-.38.031-2.215 0-3.038-2.12-.348-.886-.348-1.93.095-4.937 4.905-6.424 1.551-.475 3.418-.538.348 0 .506.031.19-.696 1.551-4.335.38-.855 1.424-1.646.76-.601 1.424-.601zm-6.899 9.335h-.19q-.632 0-1.265.159-1.33 1.265-1.361 3.164v.348q.063 1.582 1.108 1.962.284.095.538.095h.094q.254 0 .349-.032 1.645-1.55 2.436-4.335 0-.063.032-.127v-.158q0-.095.031-.285v-.284q-.854-.507-1.772-.507zm13.199 8.354q2.025-1.962 2.785-5.57.19-3.417 1.17-4.398.285-.253.602-.412 1.962.032 1.962 4.81-.032 6.33-.253 8.355-.538 4.335-2.342 6.424-.285.19-.823.57-1.93 1.36-3.038 1.55-.348.063-.664.063-1.899-.095-2.753-2.12-.349-.854-.38-1.835.063-1.235.316-1.583l.064-.063 2.31-.76q.253.317.76 1.71.442 1.234 1.17 1.518 1.55-2.057 1.74-7.563.032-.57.064-3.133v-.031q-2.785 4.43-4.462 4.81-2.627-.38-2.88-3.798-.031-.348-.031-.696.063-6.804 3.164-8.29.76-.38 1.709-.38h.158q.38.063.38.19v.063q-.222.727-.76 2.088-1.265 3.133-1.36 5.127-.032.284-.032.538.032 2.784 1.266 2.816zM15.109 78.986h-.032l-.316.032q-.063 0-.253.031-.95-.031-1.013-.443 0-.031.253-.411 2.595-1.994 3.893-2.627 1.044-.506 2.088-.76 1.614.444 1.804 3.165.063.602.063 1.867 0 1.013.032 1.488v.443q-.032 2.31-1.519 4.209-.285.19-.886.632-2.12 1.52-3.323 1.74-.285.033-.538.033-6.076-.349-6.614-9.367-.031-.633-.031-1.266 0-4.494 2.183-7.848.791-1.171 1.71-1.93.284-.127 1.993-1.235 1.55-.98 2.911-.98 1.55 0 2.342 1.898.411.95.411 1.993-.032 1.773-1.012 2.659l-2.247.411q-.253-.38-.475-2.025-.221-1.583-1.044-1.899-2.342 2.152-2.943 6.076-.158 1.013-.158 2.025.253 8.165 4.81 8.734.19 0 .538-.063 2.088-1.899 2.088-4.81-.031-2.437-1.519-3.006-2.12 1.234-3.196 1.234zm12.092-10.57q.854.601.854 2.183 0 .19-.031.602v.443q0 .98-1.298 1.202-.221.032-.411.032-1.55-.222-2.152-1.899-.253-.633-.253-1.329 0-.538.063-.791.222-.918 1.52-.95.948.032 1.708.507zM23.91 76.96q0-.126-.063-.348.316-.19.917-.664 1.203-.918 1.93-1.14.855.633.855 2.184 0 .538-.126 1.677-.127 1.203-.127 1.772 0 .506.633 2.342.316.918.316 1.424 0 1.234-1.708 1.392-.159.032-.285.032-2.5-.38-2.69-4.684.063-2.215.38-3.607zm12.251 7.5h.316q.475-.063.887-.19 1.487-1.076 1.519-2.563-.127-3.133-2.152-4.146-.317-.126-.633-.221-.57.063-1.14.443-.949 1.645-1.012 3.766 0 1.993 1.234 2.658.475.253.981.253zm-3.67 4.81q.474 0 .569.443.031.063.031.095-.19.38-.443.823-.158.126-.727.506-.222.506-.285 1.14.348 1.613 3.354 1.74 2.025-.063 4.272-1.108 1.393-.917 2.026-2.057-.159-.854-2.184-.917h-1.171q-.474.031-.664.031h-.412q-3.829 0-4.905-1.392-.538-.728-.57-1.74.032-.539.222-1.203-1.17-1.234-1.17-3.133.19-5.063 4.018-7.595 1.203-.791 2.627-1.234.221.032.348.126 2.12-2.278 5.506-2.943 1.677.032 1.836 1.71.031.19.031.347 0 .348-.253.38-.095 0-.285.032-1.17.095-2.436.474-.222-.221-.222-.443 0-.158.032-.19-.19-.126-.475-.126-.348 0-1.044.285-.538.474-1.14 1.17 2.057.697 2.5 3.165.095.538.095 1.108-.095 5.19-4.303 6.993-1.14.475-2.5.665.063 1.74 2.753 1.994.601.063 1.835.063.665.031.981.031.19 0 .57-.031h.791q2.816.063 2.848 1.867 0 1.392-1.614 2.531-.126.095-.221.159-3.133 2.247-4.969 3.006-2.215.886-4.715.918-2.974 0-4.145-1.804-.507-.823-.507-1.867 0-1.804 1.266-2.658.348-.254 1.203-.665.79-.411 1.234-.664.127-.032.348-.032zm20.287-7.025q-.063.095-.19.222-.126.158-.19.221-.38.222-1.044.696-1.582 1.14-2.69 1.234-.19.032-.38.032-2.215 0-3.037-2.12-.349-.886-.349-1.93.095-4.937 4.905-6.425 1.551-.474 3.418-.538 1.899 0 3.006 1.551.538.76.633 1.646-.031.474-.253.822l-.19 2.785q0 .507.633 2.342.317.918.317 1.424 0 1.266-1.962 1.424h-.064q-2.088-.316-2.563-3.386zm-1.55-5.823h-.19q-.633 0-1.266.159-1.33 1.265-1.361 3.164v.348q.063 1.582 1.108 1.962.284.095.538.095h.095q.253 0 .348-.032 1.93-1.803 2.468-4.493v-.127q0-.095.032-.285v-.283q-.855-.507-1.773-.507zm11.586 3.545q3.228-5.57 5.221-6.013 2.659.412 2.88 3.893.032.285.032.57-.063 6.772-3.101 8.29-.823.412-1.772.412h-.159q-.38-.063-.38-.19v-.063q.222-.728.76-2.089 1.266-3.133 1.36-5.126.032-.285.032-.538-.031-2.785-1.265-2.817h-.159q-2.595 2.5-3.133 7.563-.094 1.013-1.297 1.678-.506.253-.95.284-.253-.095-.537-.98l-.032.031h-.032l.032-.063q-.76-2.5-.823-6.013v-.316q0-2.184.538-2.659l2.405-1.044q.38 1.393.38 4.43zm17.567-8.576q.665.032.696.348v.032q0 .095-.031.221l-.064.19q0 .063-.063.19l-.063.127-.222.253q-1.044 1.012-3.038 1.55-.095 1.772-.095 3.513v1.202q0 3.513.57 4.684.57 1.044 1.646 1.234.094.032.126.127 0 1.139-1.55 1.804-.538.221-.918.253-2.722-.602-3.228-4.62-.158-1.298-.19-3.45.063-2.658.127-3.987-.19.063-.538.126-.38.127-.538.159-.222 0-.412-.095l1.583-2.026q.031-.538.095-1.582.031-1.076.063-1.614.095-.79.253-1.044l2.627-1.36q.538.569.538 2.12v.221q0 .665-.064 1.899.317-.064 2.69-.475zm12.666 5.475q0 .886.063 2.658.095 2.374.095 3.544 0 2.31-.664 3.228-.222.285-.475.507-.127.095-.696.506l-.253.063q-.855-.253-1.013-.411-.095-.063-.127-.127-.253-.411-.38-1.297-.126-1.614-.19-8.165v-.316q-.442.031-.854 0l.823-1.234q-.063-3.988-.158-6.108v-.601q-.032-.38-.032-.57 0-.506.064-.76l2.658-1.392q.443.38.696 1.772.032.095.032.159.316 2.468.38 5.76 2.594-.19 3.923-.19v-2.437q0-.76-.031-2.247-.032-1.456-.032-2.184 0-.886.032-1.297l3.67-1.361q.064.601.064 1.804 0 1.74-.063 5.221-.064 3.513-.064 5.253 0 2.374.095 4.684 0 .443.317 3.26.095.917.095 1.55-.032.791-.349 1.298-.158.221-.506.632-.19.254-.285.349l-.285.126h-.632l-.538-.032q-.602-.126-1.013-1.329-.032-.063-.032-.095-.253-.949-.443-4.113v-.222q-.063-2.532-.063-3.83v-1.297q.032-.854.032-1.297-1.55.38-3.861.538zm15.673.348q-.253.222-1.266 1.392-.633.76-1.234 1.013-.127.443-.127 1.044 0 2.089 1.33 3.418.822.823 1.803.823.412 0 .602-.064 2.215-1.74 2.373-4.398 0-2.184-1.519-3.007-.538-.284-1.17-.316-.412 0-.792.095zm1.899-2.563h.221q2.31.19 3.26 2.373.443 1.013.443 2.215-.159 3.893-3.07 6.171-1.709 1.298-3.86 1.614-2.596-.253-3.861-2.753-.697-1.424-.697-3.165 0-2.341 1.773-3.924.949-.822 1.962-1.044h.19q2.088-1.392 3.48-1.487h.159zm13.261-3.26q.665.032.696.348v.032q0 .095-.031.221l-.064.19q0 .063-.063.19l-.063.127-.222.253q-1.044 1.012-3.038 1.55-.095 1.772-.095 3.513v1.202q0 3.513.57 4.684.57 1.044 1.646 1.234.094.032.126.127 0 1.139-1.55 1.804-.538.221-.918.253-2.722-.602-3.228-4.62-.158-1.298-.19-3.45.063-2.658.127-3.987-.19.063-.538.126-.38.127-.538.159-.222 0-.412-.095l1.583-2.026q.031-.538.095-1.582.031-1.076.063-1.614.095-.79.253-1.044l2.627-1.36q.538.569.538 2.12v.221q0 .665-.064 1.899.317-.064 2.69-.475zm5.03 3.323q0 3.101 2.215 4.557.38.221 2.532 1.266 2.12.98 2.816 2.405.507 1.076.538 2.531-.095 1.804-1.456 3.101l-.031.032-.063.032q-.981.79-1.962 1.266-.159.063-.507.253-.728.348-1.202.57-.95.126-1.393.126-3.386 0-4.905-2.152-.822-1.202-.822-2.816 0-3.671 1.107-4.272.285-.127.601-.159.981 0 1.108 1.234.032.19.032.38 0 .253-.19.95-.253 1.012-.253 1.55 0 1.424 1.708 2.215.95.443 1.962.443h.222q.696 0 1.677-.253.633-.76.633-1.645v-.064q0-.474-.221-1.107-.823-1.266-3.07-2.912-2.215-1.614-3.006-2.658-1.33-1.772-1.33-4.335 0-2.912 1.488-4.779.158-.19.285-.316 2.025-2.025 3.322-2.69 1.266-.633 2.595-.696 1.804 0 2.5 2.5.317 1.108.317 2.405 0 3.196-1.456 5.38-.253.38-.506.633l-3.133.284q1.709-1.582 2.373-4.05.253-.95.253-1.804-.063-2.627-1.36-3.165-.285-.126-.602-.126h-.126q-.38 0-1.045.19-1.455 1.234-1.613 4.335-.032.601-.032 1.36zm15.16-.348q.601.063.633 1.234-.127.38-.411 1.14l-.38 1.139q1.297-2.342 3.006-2.975.854-.316 1.867-.316 2.215 0 3.038 2.151.317.887.317 1.9-.095 4.936-4.842 6.423-1.55.506-3.45.57-.98-.032-1.835-.507-.253 1.836-.253 3.576.095 2.279.76 2.912.537.538.57 1.012 0 .918-1.14 1.33-.475.19-1.044.19-2.405-.159-2.595-3.766-.032-.317-.032-.633.032-5.285 2.437-11.804.221-.602.506-1.33.38-.854 1.424-1.645.76-.601 1.424-.601zm1.772 8.48h.19q.538 0 1.266-.189 1.329-1.266 1.36-3.164v-.317q-.063-1.614-1.107-1.994-.285-.094-.538-.094h-.095q-.253 0-.348.031-1.772 1.677-2.5 4.462v.19q0 .095-.032.285v.253q.918.538 1.804.538zm11.908-2.879q3.228-5.57 5.221-6.013 1.962.285 2.659 2.437.253.791.253 1.646v.38q-.127 1.012-1.582 1.044-.95 0-1.678-.348-.538-.254-.633-1.583-.094-1.076-.443-1.202-.094-.032-.19-.032h-.158q-2.595 2.5-3.133 7.563-.094 1.013-1.297 1.678-.506.253-.95.284-.252-.095-.537-.98-.032 0-.032.031h-.032l.032-.063q-.76-2.5-.823-6.013v-.316q0-2.184.538-2.658l2.405-1.045q.38 1.393.38 4.43zm13.8-11.551q.854.601.854 2.183 0 .19-.031.602v.443q0 .98-1.298 1.202-.221.032-.411.032-1.55-.222-2.152-1.899-.253-.633-.253-1.329 0-.538.063-.791.222-.918 1.52-.95.949.032 1.708.507zm-3.291 8.544q0-.126-.063-.348.316-.19.917-.664 1.203-.918 1.93-1.14.855.633.855 2.184 0 .538-.126 1.677-.127 1.203-.127 1.772 0 .506.633 2.342.316.918.316 1.424 0 1.234-1.708 1.392-.159.032-.285.032-2.5-.38-2.69-4.684.063-2.215.38-3.607zm9.781 3.007q3.228-5.57 5.221-6.013 2.659.412 2.88 3.893.032.285.032.57-.064 6.772-3.101 8.29-.823.412-1.773.412h-.158q-.38-.063-.38-.19v-.063q.222-.728.76-2.089 1.266-3.133 1.36-5.126.032-.285.032-.538-.031-2.785-1.265-2.817h-.159q-2.595 2.5-3.133 7.563-.094 1.013-1.297 1.678-.506.253-.95.284-.253-.095-.537-.98l-.032.031h-.032l.032-.063q-.76-2.5-.823-6.013v-.316q0-2.184.538-2.659l2.405-1.044q.38 1.393.38 4.43zm16.27 4.493h.316q.475-.063.887-.19 1.487-1.076 1.519-2.563-.127-3.133-2.152-4.146-.317-.126-.633-.221-.57.063-1.14.443-.949 1.645-1.012 3.766 0 1.993 1.234 2.658.475.253.981.253zm-3.67 4.81q.474 0 .569.443.031.063.031.095-.19.38-.443.823-.158.126-.727.506-.222.506-.285 1.14.348 1.613 3.354 1.74 2.025-.063 4.272-1.108 1.393-.917 2.026-2.057-.159-.854-2.184-.917h-1.171q-.475.031-.664.031h-.412q-3.829 0-4.905-1.392-.538-.728-.57-1.74.032-.539.222-1.203-1.17-1.234-1.17-3.133.19-5.063 4.018-7.595 1.203-.791 2.627-1.234.221.032.348.126 2.12-2.278 5.506-2.943 1.677.032 1.836 1.71.031.19.031.347 0 .348-.253.38-.095 0-.285.032-1.17.095-2.437.474-.221-.221-.221-.443 0-.158.032-.19-.19-.126-.475-.126-.348 0-1.044.285-.538.474-1.14 1.17 2.057.697 2.5 3.165.095.538.095 1.108-.095 5.19-4.303 6.993-1.14.475-2.5.665.063 1.74 2.753 1.994.6.063 1.835.063.665.031.981.031.19 0 .57-.031h.79q2.817.063 2.849 1.867 0 1.392-1.614 2.531-.127.095-.221.159-3.133 2.247-4.969 3.006-2.215.886-4.715.918-2.974 0-4.145-1.804-.507-.823-.507-1.867 0-1.804 1.266-2.658.348-.254 1.203-.665.79-.411 1.234-.664.126-.032.348-.032z"></path><a><path fill="#ed6b7d" d="M138.76 24.087c3.491 1.02 6.519 3.565 10.284 3.6 0 0-.543 1.211-.562 1.858-.05 1.669.724 2.22.724 2.22-2.77-1.218-6.978-2.135-9.392-4.074-3.248-1.992-1.693-1.982-4.408-1.153-2.687.785-5.371 1.857-8.197 2.008-2.145.263-3.836-1.395-5.13-2.66-.113 3.438 2.052 4.987 3.603 5.716 3.856 2.403 6.723 1.853 11.026 3.035 5.405 1.298 10.836 2.526 16.37 3.136 3.303.336 6.436 1.457 9.65 2.198 2.08.558 4.864-.097 5.342-2.514-1.887 1.417-4.135.966-5.324-1.085-1.831-2.228-3.43-4.647-4.9-7.118-1.825-2.463-.435.186-.463.842-.905.082-2.291.08-3.197.162.536-1.285-1.687-2.959-.652-.936.611 1.693-1.158 4.012-2.881 2.58-1.917-.868-2.041-4.038.448-4.13 1.1-.066 2.28.774 1.18-.788-1.025-1.135 2.093-3.754 3.782-2.637 2.07 1.298-.154 3.29-1.62 3.854 1.68.916 4.021-2.204 3-4.114-1.333-1.463-1.537-3.427-1.018-5.306-.046-2.667 2.712.314 4.355-.529 2.286-.187 4.6-1.64 5.233-3.935l-3.6 1.243c-1.713-1.153-3.54-2.197-5.197-3.398l-2.258-4.016c-3.958 1.31-7.45 3.78-10.581 6.482-2.139 1.86-2.48 4.948-4.508 6.909-.59 1.673-1.125 1.825-1.11 2.55z"></path></a></svg>